<?xml version="1.0" encoding="UTF-8" standalone="no"?>
<!DOCTYPE svg PUBLIC "-//W3C//DTD SVG 1.1//EN" "http://www.w3.org/Graphics/SVG/1.1/DTD/svg11.dtd">
<svg width="100%" height="100%" viewBox="0 0 512 512" version="1.1" xmlns="http://www.w3.org/2000/svg" xmlns:xlink="http://www.w3.org/1999/xlink" xml:space="preserve" xmlns:serif="http://www.serif.com/" style="fill-rule:evenodd;clip-rule:evenodd;stroke-linejoin:round;stroke-miterlimit:2;">
    <circle cx="256" cy="256" r="256"/>
    <path d="M292.804,392.957C294.518,386.56 290.716,379.975 284.319,378.26C277.921,376.546 271.336,380.348 269.622,386.746L253.057,448.565C251.343,454.962 255.145,461.548 261.543,463.262C267.94,464.976 274.525,461.174 276.24,454.777L292.804,392.957ZM118.27,442.659C116.314,439.856 115.562,436.241 116.515,432.684L133.079,370.865C134.794,364.468 141.379,360.665 147.776,362.38C154.174,364.094 157.976,370.679 156.262,377.076L139.697,438.896C137.983,445.293 131.398,449.095 125,447.381C124.941,447.365 124.882,447.349 124.823,447.332C122.613,445.813 120.431,444.257 118.27,442.659ZM60.143,380.337L61.185,376.447C62.899,370.05 69.484,366.248 75.882,367.962C82.279,369.676 86.081,376.262 84.367,382.659L78.342,405.143C71.748,397.299 65.663,389.012 60.143,380.337ZM238.509,332.857C240.223,326.46 236.421,319.874 230.024,318.16C223.626,316.446 217.041,320.248 215.327,326.645L198.762,388.465C197.048,394.862 200.85,401.447 207.248,403.161C213.645,404.876 220.23,401.073 221.945,394.676L238.509,332.857ZM381.263,325.556C382.977,319.158 379.175,312.573 372.778,310.859C366.38,309.144 359.795,312.947 358.081,319.344L341.516,381.163C339.802,387.56 343.604,394.146 350.002,395.86C356.399,397.574 362.984,393.772 364.699,387.375L381.263,325.556ZM466.339,286.235C468.053,279.838 464.251,273.252 457.854,271.538C451.456,269.824 444.871,273.626 443.157,280.023L426.592,341.843C424.878,348.24 428.68,354.825 435.077,356.54C441.475,358.254 448.06,354.452 449.774,348.054L466.339,286.235ZM24.014,253.464C26.489,252.301 29.372,251.972 32.217,252.735C38.614,254.449 42.416,261.034 40.702,267.431L29.848,307.942C26.02,291.231 24,273.849 24,256C24,255.155 24.005,254.311 24.014,253.464ZM336.286,230.682C338,224.285 334.198,217.699 327.8,215.985C321.403,214.271 314.818,218.073 313.103,224.47L296.539,286.289C294.825,292.687 298.627,299.272 305.024,300.986C311.422,302.701 318.007,298.898 319.721,292.501L336.286,230.682ZM127.849,220.383C129.563,213.986 125.761,207.401 119.363,205.687C112.966,203.972 106.381,207.775 104.666,214.172L88.102,275.991C86.388,282.388 90.19,288.974 96.587,290.688C102.985,292.402 109.57,288.6 111.284,282.203L127.849,220.383ZM281.991,170.581C283.705,164.184 279.903,157.599 273.505,155.884C267.108,154.17 260.523,157.972 258.808,164.37L242.244,226.189C240.53,232.586 244.332,239.172 250.729,240.886C257.127,242.6 263.712,238.798 265.426,232.401L281.991,170.581ZM424.745,163.28C426.459,156.883 422.657,150.297 416.259,148.583C409.862,146.869 403.277,150.671 401.562,157.068L384.998,218.888C383.284,225.285 387.086,231.87 393.483,233.585C399.881,235.299 406.466,231.497 408.18,225.099L424.745,163.28ZM84.405,99.927C84.71,101.614 84.657,103.392 84.184,105.156L67.619,166.975C65.905,173.372 59.32,177.175 52.923,175.46C46.525,173.746 42.723,167.161 44.437,160.764L44.469,160.647C54.568,138.303 68.104,117.84 84.405,99.927ZM378.298,58.86C380.039,61.597 380.672,65.028 379.767,68.406L363.203,130.226C361.489,136.623 354.903,140.425 348.506,138.711C342.109,136.997 338.306,130.411 340.021,124.014L356.585,62.195C358.087,56.588 363.331,52.975 368.911,53.321C372.085,55.095 375.214,56.941 378.298,58.86ZM162.954,43.441C169.285,45.2 173.035,51.747 171.33,58.108L154.766,119.927C153.052,126.324 146.466,130.127 140.069,128.412C133.672,126.698 129.869,120.113 131.584,113.716L148.148,51.896C148.297,51.339 148.484,50.802 148.704,50.285C153.362,47.849 158.113,45.566 162.954,43.441ZM243.225,52.525C244.939,46.128 241.137,39.543 234.74,37.828C228.342,36.114 221.757,39.916 220.043,46.314L203.478,108.133C201.764,114.53 205.566,121.116 211.964,122.83C218.361,124.544 224.946,120.742 226.66,114.345L243.225,52.525Z" style="fill:white;"/>
    <g transform="matrix(0.866025,-0.5,0.5,0.866025,-91.168,163.757)">
        <path d="M248,104L220,104L260,24L300,104L272,104L272,294.076C272,294.076 311.878,254.198 328.678,237.398C333.366,232.71 336,226.351 336,219.72L336,192L312,192L312,120L384,120L384,192L360,192L360,229.641C360,236.274 357.364,242.634 352.674,247.323C331.546,268.441 272,327.959 272,327.959L272,385.515C292.694,390.85 308,409.651 308,432C308,458.492 286.492,480 260,480C233.508,480 212,458.492 212,432C212,409.651 227.306,390.85 248,385.515L248,367.959C248,367.959 188.439,308.425 167.318,287.315C162.632,282.631 159.997,276.279 159.992,269.653C159.98,254.994 159.959,229.941 159.959,229.941C145.994,224.989 135.98,211.655 135.98,196C135.98,176.131 152.111,160 171.98,160C191.849,160 207.98,176.131 207.98,196C207.98,211.655 197.966,224.989 184,229.941L184,259.72C184,266.351 186.634,272.71 191.322,277.398C208.122,294.198 248,334.076 248,334.076L248,104Z" style="fill:white;"/>
        <path d="M239.667,112.333L239.667,313.957C239.667,313.957 197.215,271.505 197.215,271.505C194.089,268.38 192.333,264.141 192.333,259.72C192.333,259.72 192.333,235.387 192.333,235.387C206.573,228.009 216.313,213.133 216.313,196C216.313,171.532 196.448,151.667 171.98,151.667C147.511,151.667 127.646,171.532 127.646,196C127.646,213.135 137.388,228.012 151.631,235.39C151.631,235.389 151.658,269.66 151.658,269.66C151.665,278.494 155.179,286.964 161.427,293.209C161.427,293.209 239.667,371.412 239.667,371.412C239.667,371.412 239.667,379.456 239.667,379.456C218.612,387.619 203.667,408.078 203.667,432C203.667,463.091 228.909,488.333 260,488.333C291.091,488.333 316.333,463.091 316.333,432C316.333,408.078 301.388,387.619 280.333,379.456C280.333,379.456 280.333,331.412 280.333,331.412C280.333,331.412 358.565,253.217 358.565,253.217C364.819,246.965 368.333,238.484 368.333,229.641C368.333,229.641 368.333,200.333 368.333,200.333C368.333,200.333 384,200.333 384,200.333C388.602,200.333 392.333,196.602 392.333,192L392.333,120C392.333,115.398 388.602,111.667 384,111.667L312,111.667C307.398,111.667 303.667,115.398 303.667,120L303.667,192C303.667,196.602 307.398,200.333 312,200.333L327.667,200.333C327.667,200.333 327.667,219.72 327.667,219.72C327.667,224.141 325.911,228.38 322.785,231.505C322.785,231.505 280.333,273.957 280.333,273.957C280.333,273.957 280.333,112.333 280.333,112.333C280.333,112.333 300,112.333 300,112.333C302.888,112.333 305.57,110.838 307.089,108.381C308.607,105.924 308.745,102.856 307.454,100.273L267.454,20.273C266.042,17.45 263.156,15.667 260,15.667C256.844,15.667 253.958,17.45 252.546,20.273L212.546,100.273C211.255,102.856 211.393,105.924 212.911,108.381C214.43,110.838 217.112,112.333 220,112.333L239.667,112.333ZM248,104L220,104L260,24L300,104L272,104L272,294.076C272,294.076 311.878,254.198 328.678,237.398C333.366,232.71 336,226.351 336,219.72L336,192L312,192L312,120L384,120L384,192L360,192L360,229.641C360,236.274 357.364,242.634 352.674,247.323C331.546,268.441 272,327.959 272,327.959L272,385.515C292.694,390.85 308,409.651 308,432C308,458.492 286.492,480 260,480C233.508,480 212,458.492 212,432C212,409.651 227.306,390.85 248,385.515L248,367.959C248,367.959 188.439,308.425 167.318,287.315C162.632,282.631 159.997,276.279 159.992,269.653C159.98,254.994 159.959,229.941 159.959,229.941C145.994,224.989 135.98,211.655 135.98,196C135.98,176.131 152.111,160 171.98,160C191.849,160 207.98,176.131 207.98,196C207.98,211.655 197.966,224.989 184,229.941L184,259.72C184,266.351 186.634,272.71 191.322,277.398C208.122,294.198 248,334.076 248,334.076L248,104Z"/>
    </g>
</svg>
