<?xml version="1.0" encoding="UTF-8" standalone="no"?>
<!DOCTYPE svg PUBLIC "-//W3C//DTD SVG 1.1//EN" "http://www.w3.org/Graphics/SVG/1.1/DTD/svg11.dtd">
<svg width="100%" height="100%" viewBox="0 0 512 512" version="1.1" xmlns="http://www.w3.org/2000/svg" xmlns:xlink="http://www.w3.org/1999/xlink" xml:space="preserve" xmlns:serif="http://www.serif.com/" style="fill-rule:evenodd;clip-rule:evenodd;stroke-linejoin:round;stroke-miterlimit:2;">
    <circle cx="256" cy="256" r="248"/>
    <path d="M267.895,0.281C409.03,6.847 518.284,126.761 511.719,267.896C505.154,409.031 385.24,518.282 244.105,511.717C102.97,505.152 -6.284,385.24 0.281,244.105C6.846,102.97 126.76,-6.284 267.895,0.281ZM160,336L157,336C154.24,336 152,338.24 152,341L152,411C152,413.76 154.24,416 157,416L168,416L168,468.728C168,470.371 169.004,471.846 170.532,472.449C172.879,473.375 174.645,474.098 176.009,474.611C176.901,474.946 177.23,475.024 178.717,475.527C179.938,475.941 181.283,475.741 182.331,474.989C183.379,474.238 184,473.028 184,471.739L184,416L195,416C197.76,416 200,413.76 200,411L200,341C200,338.24 197.76,336 195,336L192,336L192,314C192,312.896 191.104,312 190,312L162,312C160.896,312 160,312.896 160,314L160,336ZM327.749,308.528C311.591,307.734 295.639,305.033 282.813,302.889C273.061,301.258 263.811,298.687 256.218,296.08C254.978,295.635 253.595,296.05 252.806,297.103C252.017,298.156 251.903,299.687 252.784,300.665C256.368,304.641 267.737,312.926 276.57,316.73C269.019,322.965 263.855,337.222 261.819,344.603C259.088,354.506 258.699,368.807 259.361,374.056C262.022,395.17 269.787,414.092 289.01,430.645C302.466,442.231 321.939,450.15 341.841,450.505C369.306,450.994 402.208,439.196 428.036,412.672C461.803,375.653 483.925,327.516 488.032,273.731C497.811,145.661 401.775,33.745 273.705,23.966C145.636,14.187 33.721,110.224 23.941,238.293C18.877,304.617 42.192,366.611 83.643,412.324C84.798,413.578 86.659,413.884 88.154,413.064C89.648,412.244 90.39,410.508 89.951,408.861C59.21,288.452 125.895,158.489 200.327,117.356C227.96,102.085 254.876,96.28 279.058,106.059C316.082,121.029 337.248,145.85 383.071,166.727C428.894,187.603 433.849,222.406 421.076,257.592C408.303,292.778 367.149,310.463 327.749,308.528ZM247.568,122.281C232.551,123.456 222.691,142.043 221.4,154.001C220.103,165.957 226.037,185.691 245.604,185.306C268.52,184.854 275.482,165.239 272.968,146.26C271.081,132.006 260.123,121.297 247.568,122.281Z" style="fill:#fff;"/>
</svg>
